<svg width="300" height="254" viewBox="0 0 300 254" fill="none" xmlns="http://www.w3.org/2000/svg">
<ellipse cx="150" cy="168.75" rx="140.625" ry="84.375" fill="#E8B86D"/>
<mask id="mask0_245_16" style="mask-type:alpha" maskUnits="userSpaceOnUse" x="9" y="84" width="282" height="170">
<ellipse cx="150" cy="168.75" rx="140.625" ry="84.375" fill="#E8B86D"/>
</mask>
<g mask="url(#mask0_245_16)">
<path d="M120.323 73.125H85.1012C85.1012 103.875 82.1596 168.075 70.3932 178.875C55.6852 192.375 77.3602 182.812 103.293 165.375C124.039 151.425 123.29 98.0625 120.323 73.125Z" fill="#FFDBA3"/>
<path d="M176.573 73.125H141.351C141.351 103.875 138.41 168.075 126.643 178.875C111.935 192.375 133.61 182.812 159.543 165.375C180.289 151.425 179.54 98.0625 176.573 73.125Z" fill="#FFDBA3"/>
<path d="M232.823 73.125H197.601C197.601 103.875 194.66 168.075 182.893 178.875C168.185 192.375 189.86 182.812 215.793 165.375C236.539 151.425 235.79 98.0625 232.823 73.125Z" fill="#FFDBA3"/>
</g>
<circle cx="9.375" cy="84.375" r="84.375" fill="white"/>
<circle cx="290.625" cy="84.375" r="84.375" fill="white"/>
</svg>
